<?xml version="1.0" standalone="no"?><!DOCTYPE svg PUBLIC "-//W3C//DTD SVG 1.1//EN" "http://www.w3.org/Graphics/SVG/1.1/DTD/svg11.dtd"><svg class="icon" width="200px" height="200.00px" viewBox="0 0 1024 1024" version="1.1" xmlns="http://www.w3.org/2000/svg"><path fill="#ffffff" d="M510.4 875.404c-210.8 0-382.4-171.6-382.4-382.4s171.6-382.4 382.5-382.4 382.4 171.6 382.4 382.4-171.6 382.4-382.5 382.4z m0-706c-178.4 0-323.6 145.1-323.6 323.5s145.2 323.6 323.6 323.6 323.6-145.1 323.6-323.5-145.2-323.6-323.6-323.6zM894.3 924.304c-7.5 0-15.1-2.9-20.8-8.6l-138.4-138c-11.5-11.5-11.5-30.1-0.1-41.6 11.5-11.5 30.2-11.6 41.6 0l138.4 138c11.5 11.5 11.5 30.1 0.1 41.6-5.7 5.7-13.3 8.6-20.8 8.6z" /></svg>