<?xml version="1.0" standalone="no"?><!DOCTYPE svg PUBLIC "-//W3C//DTD SVG 1.1//EN" "http://www.w3.org/Graphics/SVG/1.1/DTD/svg11.dtd"><svg class="icon" width="200px" height="200.00px" viewBox="0 0 1024 1024" version="1.1" xmlns="http://www.w3.org/2000/svg"><path fill="#ffffff" d="M725.9 161.9c-72.3-23.2-151-12.9-214.6 27.2-63.8-40.2-142.7-50.6-214.9-27.2-154 49.6-201.7 217.6-158.7 352.1 24 69.1 64 132.7 115.9 184.5 70.8 68.8 149.4 130 233.6 181.9 0.1 0.1 0.2 0.1 0.3 0.2l9.3 5.6c4.5 2.7 9.6 4 14.7 4 5.2 0 10.5-1.4 15.1-4.3l8.8-5.5c84.2-51.8 162.8-112.9 233.9-182C821 646.8 861 583 885.1 513.4c42.8-133.8-5-301.8-159.2-351.5z m105.2 333.5c-21.1 60.9-56.3 117.2-101.8 162.5-66.1 64.3-139.4 121.6-217.9 170.5-78.5-49-151.8-106.4-217.8-170.5C248 612.5 212.7 556.3 191.8 496c-33.9-105.7-2.6-239.8 122.1-279.9 19.9-6.5 40.4-9.6 60.9-9.6 42.5 0 84.6 13.7 119.4 39.9 10.1 7.6 24 7.7 34.2 0 51.4-38.6 118.8-50 180.1-30.3 124.8 40.2 156.2 174.2 122.6 279.3zM662.1 304.9c-14.9-4.7-31 3.4-35.9 18.4-4.8 14.9 3.4 31 18.4 35.9 29.8 9.6 50.6 36 53.2 67.2 1.2 14.9 13.6 26.2 28.3 26.2 0.8 0 1.6 0 2.3-0.1 15.7-1.3 27.4-15 26.1-30.7-4.4-54.4-40.7-100.2-92.4-116.9z" /></svg>