<?xml version="1.0" standalone="no"?><!DOCTYPE svg PUBLIC "-//W3C//DTD SVG 1.1//EN" "http://www.w3.org/Graphics/SVG/1.1/DTD/svg11.dtd"><svg class="icon" width="200px" height="200.00px" viewBox="0 0 1024 1024" version="1.1" xmlns="http://www.w3.org/2000/svg"><path fill="#ffffff" d="M727.6 227.5C667.3 166.8 587 133.3 501.5 133h-1.1c-85.1 0-165.2 33-225.6 93-60.7 60.3-94.2 140.6-94.5 226.1v2c2.9 84 31.4 163.6 82.4 230.1 54.8 73.2 121.3 135.6 197.7 185.5 11.6 9.3 25.8 14.1 40.1 14.1 14.2 0 28.4-4.7 40-14 50.9-33 97.9-71.8 139.1-114.7 81.8-78 131.8-183 140.8-295.6 0.1-0.7 0.1-4.7 0.1-5.5 0.4-85.4-32.7-165.9-92.9-226.5z m-88.1 487.3c-39.4 41-83.6 77.3-131.3 108.2-1.1 0.7-2.2 1.5-3.2 2.4-2.6 2.3-6.3 2.3-8.9 0-1-0.9-2-1.7-3.1-2.4-71.4-46.4-133.6-104.5-184.9-173-43.9-57.3-68.4-125.7-70.8-196.7v-0.9c0.2-70.4 27.8-136.4 77.7-185.9 49.7-49.3 115.5-76.5 185.5-76.5h0.9c70.3 0.2 136.3 27.8 185.8 77.6 49.6 49.9 76.7 116.1 76.6 187.5-8 98.6-51.8 190.6-124.3 259.7zM500.5 335.9c-67.2 0-122 54.7-122 122 0 67.2 54.7 122 122 122s122-54.7 122-122-54.8-122-122-122z m0 186.9c-35.8 0-65-29.2-65-65 0-35.9 29.2-65 65-65s65 29.2 65 65c0 35.9-29.2 65-65 65z" /></svg>