<?xml version="1.0" standalone="no"?><!DOCTYPE svg PUBLIC "-//W3C//DTD SVG 1.1//EN" "http://www.w3.org/Graphics/SVG/1.1/DTD/svg11.dtd"><svg class="icon" width="200px" height="200.00px" viewBox="0 0 1024 1024" version="1.1" xmlns="http://www.w3.org/2000/svg"><path fill="#ffffff" d="M596.6 714.904H313.1c-16.3 0-29.5-13.2-29.5-29.5s13.2-29.5 29.5-29.5h283.5c16.3 0 29.5 13.2 29.5 29.5s-13.3 29.5-29.5 29.5zM596.6 550.504H313.1c-16.3 0-29.5-13.2-29.5-29.5s13.2-29.5 29.5-29.5h283.5c16.3 0 29.5 13.2 29.5 29.5s-13.3 29.5-29.5 29.5zM421.2 386.404H313.1c-16.3 0-29.5-13.2-29.5-29.5s13.2-29.5 29.5-29.5h108.2c16.3 0 29.5 13.2 29.5 29.5s-13.3 29.5-29.6 29.5zM890.1 688.904h-114v-403.5c0-100.3-81.6-182-182-182H305.5c-100.3 0-182 81.6-182 182v463.9c0 100.3 81.6 182 182 182H822c58.5 0 106.1-47.6 106.1-106.1v-98.2c0-21-17-38.1-38-38.1z m-172.9 183.5H305.5c-67.8 0-123.1-55.2-123.1-123.1v-463.9c0-67.9 55.2-123.1 123.1-123.1h288.6c67.8 0 123.1 55.2 123.1 123.1v587z m152-47.1c0 26-21.2 47.2-47.2 47.2h-44.8v-124.7h92v77.5z" /></svg>