<?xml version="1.0" standalone="no"?><!DOCTYPE svg PUBLIC "-//W3C//DTD SVG 1.1//EN" "http://www.w3.org/Graphics/SVG/1.1/DTD/svg11.dtd"><svg class="icon" width="200px" height="200.00px" viewBox="0 0 1024 1024" version="1.1" xmlns="http://www.w3.org/2000/svg"><path fill="#ffffff" d="M346.9 472.6c-24.5 0-44.4 19.8-44.4 44.4 0 24.5 19.8 44.4 44.4 44.4 24.5 0 44.4-19.8 44.4-44.4 0-24.5-19.9-44.4-44.4-44.4zM519.4 472.7c-24.5 0-44.4 19.8-44.4 44.3 0 24.5 19.8 44.4 44.4 44.4 24.5 0 44.3-19.8 44.4-44.3-0.1-24.5-19.9-44.4-44.4-44.4zM691.9 472.5c-24.5 0-44.4 19.9-44.4 44.4s19.9 44.4 44.4 44.4 44.4-19.9 44.4-44.4-19.9-44.4-44.4-44.4zM904.4 399.8c-29-105.2-97.3-192.7-192.1-246.5-61.2-34.7-130.7-53.1-201.2-53.2h-0.6c-225 0-408.2 182.9-408.5 409.3 1.2 71 20.2 141.4 55.1 203.6 1.7 3 2 6.6 0.1 11.8L132 809.3c-9.2 27.2 5.5 56.9 32.8 66.1 11.6 3.9 24.4 3.6 33.5-0.1l75.1-22.3c11.2-2.6 23 0.3 31.6 7.6 1.4 1.1 2.8 2.2 4.4 3.1 63.4 36 132.5 53.1 200.8 53.1 142.3 0 280.7-74.4 355.9-206.7 53.7-95 67.3-205.1 38.3-310.3z m-88 282.1c-95.2 167.8-308.6 227.3-476.9 133.4-22.2-17.7-51.6-24.3-80.8-17.4l-70.5 21.8 22.7-76.3c7.4-19.3 5.7-40.7-4.4-58.3-30-53.8-46.5-114.9-47.5-176.9 0.3-193.7 157.9-351 351.5-351h0.5c60.6 0 120.5 15.8 173.1 45.7 81.6 46.3 140.4 121.6 165.3 212.1 25.1 90.4 13.3 185.2-33 266.9z" /></svg>