<?xml version="1.0" standalone="no"?><!DOCTYPE svg PUBLIC "-//W3C//DTD SVG 1.1//EN" "http://www.w3.org/Graphics/SVG/1.1/DTD/svg11.dtd"><svg class="icon" width="200px" height="200.00px" viewBox="0 0 1024 1024" version="1.1" xmlns="http://www.w3.org/2000/svg"><path fill="#ffffff" d="M668.5 736.704H385c-16.3 0-29.5-13.2-29.5-29.5s13.2-29.5 29.5-29.5h283.5c16.3 0 29.5 13.2 29.5 29.5s-13.2 29.5-29.5 29.5zM668.5 572.304H385c-16.3 0-29.5-13.2-29.5-29.5s13.2-29.5 29.5-29.5h283.5c16.3 0 29.5 13.2 29.5 29.5s-13.2 29.5-29.5 29.5zM668.5 374.904h-84c-16.3 0-29.5-13.2-29.5-29.5s13.2-29.5 29.5-29.5h84c16.3 0 29.5 13.2 29.5 29.5s-13.2 29.5-29.5 29.5zM365.2 908.704c-5.3 0-11-0.2-16.6-0.7-52.3-4.4-99.7-28.9-133.6-69-33.9-40.2-50.1-91.1-45.7-143.4l-0.1-358.8c-0.7-6.7-0.8-15.9-0.3-25.1 2.9-52.3 26-100.5 65.1-135.5 39.1-35 89.4-52.6 141.8-49.8h299.5c9.4-0.5 18.8-0.4 28.2 0.4 108 9.2 188.3 104.6 179 212.6l0.1 358.8c0.7 6.5 0.8 15.6 0.3 24.7-2.9 52.4-26 100.5-65 135.5-39.1 35-89.2 52.5-141.8 49.9H375.8c-3.4 0.2-6.9 0.4-10.6 0.4z m0.8-723.6c-35.1 0-67.3 12.3-92.7 35.1-27.4 24.5-43.5 58.2-45.5 94.9-0.4 6.5-0.2 12.9 0.3 19.3l0.1 363.7c-3.3 39.1 8.1 74.7 31.8 102.8 23.7 28.1 56.9 45.2 93.6 48.3 6.7 0.6 13.4 0.7 20.2 0.2l303.8-0.1c38.4 2 73.6-10.4 100.9-34.9 27.3-24.4 43.5-58.1 45.5-94.7 0.3-6.3 0.3-12.6-0.2-18.9l-0.2-363.9c3.2-39.1-8.1-74.8-31.8-102.9-23.7-28.1-56.9-45.3-93.5-48.5-6.8-0.6-13.6-0.6-20.4-0.2-0.6 0-1.2 0.1-1.8 0.1h-302c-2.7-0.2-5.4-0.3-8.1-0.3zM474.1 331.604c1.4 0 2.5 1.1 2.5 2.5v76.9c0 1.4-1.1 2.5-2.5 2.5h-76.9c-1.4 0-2.5-1.1-2.5-2.5v-76.9c0-1.4 1.1-2.5 2.5-2.5h76.9m0-39.3h-76.9c-23 0-41.8 18.7-41.8 41.8v76.9c0 23 18.7 41.8 41.8 41.8h76.9c23 0 41.8-18.7 41.8-41.8v-76.9c-0.1-23.1-18.8-41.8-41.8-41.8z" /></svg>