<?xml version="1.0" standalone="no"?><!DOCTYPE svg PUBLIC "-//W3C//DTD SVG 1.1//EN" "http://www.w3.org/Graphics/SVG/1.1/DTD/svg11.dtd"><svg class="icon" width="200px" height="200.00px" viewBox="0 0 1024 1024" version="1.1" xmlns="http://www.w3.org/2000/svg"><path fill="#ffffff" d="M669.6 529.7h-0.4c-15.7 0-28.3 12.8-28.3 28.5s12.9 28.5 28.7 28.5 28.5-12.8 28.5-28.5-12.8-28.5-28.5-28.5zM501 529.7h-0.3c-15.7 0-28.3 12.8-28.3 28.5s12.9 28.5 28.7 28.5 28.5-12.8 28.5-28.5-12.9-28.5-28.6-28.5zM332.1 529.7h-0.3c-15.7 0-28.3 12.8-28.3 28.5s12.9 28.5 28.7 28.5 28.5-12.8 28.5-28.5-12.9-28.5-28.6-28.5zM669.6 677.3h-0.4c-15.7 0-28.3 12.8-28.3 28.5s12.9 28.5 28.7 28.5 28.5-12.8 28.5-28.5-12.8-28.5-28.5-28.5zM501 677.3h-0.3c-15.7 0-28.3 12.8-28.3 28.5s12.9 28.5 28.7 28.5 28.5-12.8 28.5-28.5-12.9-28.5-28.6-28.5zM332.1 677.3h-0.3c-15.7 0-28.3 12.8-28.3 28.5s12.9 28.5 28.7 28.5 28.5-12.8 28.5-28.5-12.9-28.5-28.6-28.5zM816.7 216.3c-32.5-32.6-78.9-50.7-134.1-54.6v-33.1c0-15.7-12.8-28.5-28.5-28.5s-28.5 12.8-28.5 28.5v31.5H375.7v-31.5c0-15.7-12.8-28.5-28.5-28.5s-28.5 12.8-28.5 28.5v33.2c-116.5 8.4-188.6 84.1-188.6 203.2v343.7c0 128.3 80.4 208.1 209.7 208.1H661c129.3 0 209.7-78.6 209.7-205.2V365c0.3-61.5-18.4-113-54-148.7z m-498 2.3v35.1c0 15.7 12.8 28.5 28.5 28.5s28.5-12.8 28.5-28.5v-36.5h249.9v36.5c0 15.7 12.8 28.5 28.5 28.5s28.5-12.8 28.5-28.5v-35c39.5 3.5 71.9 16 93.8 37.9 25 25.1 37.6 61.5 37.5 108.4v16.4H187.1V365c0-88.1 46.9-139.1 131.6-146.4z m342.4 641.2H339.8c-98.5 0-152.7-53.7-152.7-151.1V438.3h626.7v273.2c0 95.7-54.2 148.3-152.7 148.3z" /></svg>