<?xml version="1.0" standalone="no"?><!DOCTYPE svg PUBLIC "-//W3C//DTD SVG 1.1//EN" "http://www.w3.org/Graphics/SVG/1.1/DTD/svg11.dtd"><svg class="icon" width="200px" height="200.00px" viewBox="0 0 1024 1024" version="1.1" xmlns="http://www.w3.org/2000/svg"><path fill="#ffffff" d="M862.6 566.7c-1.4-29.9-10.9-58.7-27.7-83.4-0.8-1.1-1.6-2.2-2.6-3.3-18.9-20.6-32-45.8-38.1-73-0.7-10.8-0.6-21.6-0.6-32.4 0.1-14.1 0.1-28.3-1.2-42.6-13.9-143.2-156-231.9-282.6-231.9-123.9 0-265.9 88.7-279.2 232.2-2.2 25.5-2.3 51-2.3 75.7-6.1 26.7-19.2 51.4-37.9 71.5-1.1 1.1-2 2.3-2.9 3.6-16.5 24.9-26 53.7-27.5 84.9v8c-0.7 39.8 12.9 78.4 39.7 110.4 33.4 34.6 78.2 56.2 125.7 60.6 61.7 6.6 123.7 9.9 185.8 9.9 61.9 0 123.7-3.3 185-9.9 48.2-4.2 93.1-25.8 127.7-62 26-30.7 39.7-69.7 38.8-109.2l-0.1-9.1z m-56.9 9.9c0.6 26.2-8.4 51.7-24.2 70.4-23.9 25-56 40.4-90.9 43.4-119.2 12.8-239.9 12.8-359.5 0-34.3-3.2-66.4-18.7-89-42-16.7-20-25.6-45.4-25.1-71.5v-7.5c0.9-18.8 6.8-37.1 16.9-52.9 25.5-28 43.1-62.4 50.9-99.6 0.4-1.9 0.6-3.9 0.6-5.9 0-24.4 0-49.7 2.1-73.7C297.7 226 410.9 157.1 512.8 157.1c98.8 0 212.2 69 223 180.2 1.1 12.3 1 24.7 0.9 37.1-0.1 12.9-0.1 25.9 0.9 38.8 0.1 1.3 0.3 2.6 0.5 3.8 7.9 37.1 25.4 71.6 50.7 99.9 10.2 15.6 16 33.7 16.8 51.1v8.6zM579.1 826.7c-4.3 5.3-9.3 10-15.3 14.5-18.5 14.3-41.6 20.7-64.8 18-23.1-2.7-43.9-14.2-58.4-32.3-9.8-12.3-27.8-14.2-40-4.4-12.3 9.8-14.2 27.8-4.4 40.1 24 29.9 58.2 48.8 96.3 53.3 5.7 0.7 11.5 1 17.2 1 32.2 0 63.2-10.6 88.6-30.2 9.3-6.9 17.7-14.9 25-23.9 9.9-12.2 8.1-30.1-4.1-40.1s-30.1-8.2-40.1 4z" /></svg>