<?xml version="1.0" standalone="no"?><!DOCTYPE svg PUBLIC "-//W3C//DTD SVG 1.1//EN" "http://www.w3.org/Graphics/SVG/1.1/DTD/svg11.dtd"><svg class="icon" width="200px" height="200.00px" viewBox="0 0 1024 1024" version="1.1" xmlns="http://www.w3.org/2000/svg"><path fill="#ffffff" d="M648 901.004H352.4c-151.1 0-244.9-93.7-244.9-244.5v-296.2c0-162.1 72.1-244.3 214.3-244.3h76c36 0 70.4 17.2 92.1 46l34.7 46.1c10.9 14.5 28.4 23.3 46.7 23.3h107.2c146.7 0 215 75.1 215 236.5l-1 188.7c-0.1 150.7-93.8 244.4-244.5 244.4z m-326.3-728.1c-110.3 0-157.3 56-157.3 187.3v296.2c0 120.9 66.8 187.5 188 187.5H648c120.9 0.1 187.5-66.5 187.5-187.4v-0.1l1-188.6c0-129-44.3-179.4-158-179.4H571c-36.1-0.1-70.5-17.3-92.1-46l-34.7-46.2c-10.9-14.6-28.3-23.3-46.5-23.3h-76zM681.9 636.804H317.6c-15.7 0-28.5-12.8-28.5-28.5s12.8-28.5 28.5-28.5H682c15.7 0 28.5 12.8 28.5 28.5s-12.8 28.5-28.6 28.5z" /></svg>