<?xml version="1.0" standalone="no"?><!DOCTYPE svg PUBLIC "-//W3C//DTD SVG 1.1//EN" "http://www.w3.org/Graphics/SVG/1.1/DTD/svg11.dtd"><svg class="icon" width="200px" height="200.00px" viewBox="0 0 1024 1024" version="1.1" xmlns="http://www.w3.org/2000/svg"><path fill="#ffffff" d="M520.7 537.204c-129.6 0-235.1-105.4-235.1-235.1 0-129.6 105.5-235 235.1-235s235.1 105.4 235.1 235c0 129.7-105.5 235.1-235.1 235.1z m0-406.3c-94.5 0-171.3 76.8-171.3 171.3s76.9 171.2 171.3 171.2 171.3-76.8 171.3-171.3-76.8-171.2-171.3-171.2zM522.5 948.304c-20.8 0-41.5-0.6-62.2-1.7-11 0.6-24.8-0.5-38.3-2.8-31.7-2-66.7-7.1-100.9-14.7-73-13.9-121.2-42.7-142-85.4-8.3-17.6-12.6-36.8-12.6-55.8 0-18.9 4.3-38 12.5-55.1 0.9-1.8 1.9-3.5 3.1-5.1 33.8-45.8 85.6-75.5 142.1-81.7 31.1-6.7 66.1-11.6 100.9-14 63.1-5.5 127.7-5.5 191.4 0.1 34.3 2.4 69.3 7.3 103.5 14.6 74.1 15.2 122 44.3 142 86.3 16.7 35 16.7 75.3 0 110.3-20.2 42.5-68.1 71.4-142.4 86.1-33.5 7.5-68.6 12.6-103.6 14.9-30.9 2.7-62.2 4-93.5 4z m-61.5-65.5c51.8 2.7 101.3 2 150.1-2.1 32.3-2.2 64.2-6.8 95.3-13.7 52.7-10.4 87.2-28.5 98-51.1 8.4-17.6 8.4-37.8 0-55.5-10.8-22.7-44.5-40.5-97.5-51.3-31.5-6.7-63.5-11.2-95.4-13.4-60.6-5.3-121.5-5.3-181.5 0-32.5 2.2-64.5 6.7-95.8 13.3-40.9 4.6-75.7 24.1-98.9 54.1-3.3 7.8-5.1 16.3-5 24.8v0.2c0 9.7 2.2 19.4 6.3 28.1 11.1 22.7 45.8 40.8 97.5 50.6 32 7.2 63.7 11.8 95.4 13.9 12.5 1.8 22 2.4 31.5 2.1z" /></svg>